<svg viewBox="0 0 512 513.5" xmlns="http://www.w3.org/2000/svg"><path d="M256 48c79.336 0 144 64.664 144 144 0 22.501-9.116 48.313-21.5 76.5s-28.314 58.098-44.5 86C301.628 410.306 269 457 269 457l-13 19-13-19s-32.628-46.694-65-102.5c-16.186-27.902-32.116-57.813-44.5-86S112 214.501 112 192c0-79.336 64.664-144 144-144zm0 32c-62.04 0-112 49.96-112 112 0 12.844 6.884 37.059 18.5 63.5s27.686 55.738 43.5 83c25.155 43.364 40.74 66.299 50 80 9.26-13.701 24.845-36.636 50-80 15.813-27.262 31.884-56.559 43.5-83S368 204.844 368 192c0-62.04-49.96-112-112-112zm0 80c17.673 0 32 14.327 32 32s-14.327 32-32 32-32-14.327-32-32 14.327-32 32-32z"></path></svg>