<svg version="1.1" id="Layer_1" xmlns="http://www.w3.org/2000/svg" xmlns:xlink="http://www.w3.org/1999/xlink" x="0px" y="0px"
	 viewBox="0 0 1027.9 244.4" style="enable-background:new 0 0 1027.9 244.4;" xml:space="preserve">
<style type="text/css">
	.st0{fill:#25C16F;}
	.st1{fill:#19313F;}
	.st2{clip-path:url(#SVGID_2_);fill:#3972E6;}
	.st3{clip-path:url(#SVGID_4_);fill:#FF5969;}
	.st4{clip-path:url(#SVGID_6_);fill:#FF5969;}
	.st5{clip-path:url(#SVGID_8_);fill:#FFA800;}
	.st6{fill:none;}
	.st7{clip-path:url(#SVGID_10_);fill:#25C16F;}
	.st8{fill:#FFFFFF;}
	.st9{fill:#FFFFFF;stroke:#FFFFFF;stroke-width:2;stroke-miterlimit:10;}
</style>
<g>
	<path class="st0" d="M242.5,122.1c0-17.4-3.7-33.9-10.5-48.8L111.4,239.9c4.1,0.4,8.4,0.7,12.6,0.7
		C189.4,240.6,242.5,187.5,242.5,122.1"/>
	<g>
		<path class="st1" d="M671.9,112.3v53.8c0,1.8-0.5,2.2-2.2,2.2c-5.8-0.1-11.6-0.1-17.4,0c-1.9,0-2.1-0.6-2.1-2.3
			c0.1-14.9,0-29.9,0.1-44.8c0-1.9-0.4-2.4-2.3-2.4c-11,0.1-22,0.1-33,0c-1.7,0-2.2,0.4-2.2,2.2c0.1,15,0,30,0.1,45
			c0,1.7-0.4,2.3-2.2,2.2c-6-0.1-11.9-0.1-17.9,0c-1.4,0-1.7-0.4-1.7-1.8V57.6c0-1.4,0.3-1.8,1.7-1.7c6,0.1,12.1,0.1,18.1,0
			c1.6,0,2,0.4,2,2c-0.1,12.7,0,25.3-0.1,38c0,1.8,0.5,2.2,2.2,2.2c11.1-0.1,22.2-0.1,33.2,0c1.7,0,2.1-0.5,2.1-2.1
			c-0.1-12.6,0-25.2-0.1-37.8c0-1.7,0.3-2.3,2.1-2.3c5.8,0.1,11.6,0.1,17.4,0c1.8,0,2.2,0.4,2.2,2.2L671.9,112.3L671.9,112.3z"/>
		<path class="st1" d="M347.1,171c-15.2,0-28.2-3.4-39.3-12.3c-12.4-10-19.3-23-20.9-38.9c-1.2-11.4-0.1-22.6,4.8-33.1
			c7.3-15.6,19.7-25.7,35.9-30.5c24.1-7.1,45.5-1.4,63.9,15.7c4.1,3.8,4,3.8,0,7.6c-3.4,3.1-6.7,6.3-10,9.5c-1,1-1.6,1.1-2.7,0
			c-6.5-6.5-14-11.3-23.1-13.6c-20.3-5.1-41.1,6.1-46.4,25.4c-3.9,14.3-1.6,27.7,9.2,38.5c8.7,8.8,19.8,11.6,31.9,10.7
			c11.4-0.9,20.2-6.8,28.1-14.5c1.3-1.2,1.8-1.1,3,0.1c3.9,4.3,8,8.4,12,12.6c0.9,0.9,1,1.4,0,2.3c-10.5,10.1-22.1,18-36.9,19.8
			C353.1,170.7,349.5,171.1,347.1,171"/>
		<path class="st1" d="M511.9,110.8c0-18.3,0-36.6-0.1-55c0-2.1,0.6-2.6,2.6-2.6c5.4,0.1,10.9,0.1,16.3,0c1.5,0,2.1,0.3,2.1,2v111
			c0,1.6-0.5,2-2.1,2c-5.6-0.1-11.2-0.1-16.7,0c-1.9,0-2.2-0.7-2.2-2.3C511.9,147.6,511.9,129.2,511.9,110.8"/>
		<path class="st1" d="M549.4,110.6c0-18.2,0.1-36.3-0.1-54.5c0-2.4,0.7-2.8,2.9-2.8c5.3,0.2,10.7,0.1,16.1,0c1.5,0,2.1,0.3,2.1,2
			v111c0,1.6-0.6,2-2.1,2c-5.5-0.1-11-0.2-16.5,0c-2.2,0.1-2.4-0.7-2.4-2.6V110.6z"/>
		<path class="st1" d="M692.8,126.8V87.5c0-1.7,0.4-2.1,2.1-2.1c5.7,0.1,11.5,0.1,17.2,0c1.5,0,1.8,0.5,1.8,1.9v79.1
			c0,1.5-0.4,1.9-1.9,1.9c-5.8-0.1-11.6-0.1-17.4,0c-1.6,0-1.8-0.5-1.8-1.9L692.8,126.8L692.8,126.8z"/>
		<path class="st1" d="M703.5,78.2c-7.7,0-13.5-5.9-13.5-13.6c0-7.4,5.8-13.1,13.2-13.1c7.6,0,13.5,5.8,13.5,13.3
			C716.7,72.4,711,78.2,703.5,78.2"/>
		<path class="st1" d="M753,94.3c12.7-11.3,26.6-14,41.8-7.4c10.4,4.5,17.4,12.9,20.8,23.7c4.4,14,3.8,27.8-4.2,40.6
			c-9.5,15.2-26.8,22.1-43.1,17.4c-5.8-1.7-10.6-5-15-9c-0.7,0.7-0.3,1.5-0.3,2.2c0,11.5-0.1,23.1,0,34.6c0,1.6-0.3,2.2-2,2.1
			c-5.5-0.1-11-0.1-16.5,0c-1.9,0-2.3-0.4-2.3-2.3c0.1-26.6,0-53.2,0-79.9v-29c0-1.7,0.4-2.1,2.1-2.1c5.6,0.1,11.2,0.1,16.7,0
			c1.8,0,2.2,0.5,2.1,2.1C752.9,89.7,753,91.9,753,94.3 M752.5,132.1c2.3,15.1,18.9,23.5,32.4,16.4c8.4-4.4,13.1-13.7,12.3-24.3
			c-1.2-15.3-14.4-24.7-29-20.7c-9.8,2.7-16.1,11.7-16.2,23.2C752,128.4,752.2,130.3,752.5,132.1"/>
		<path class="st1" d="M856.1,94.5c5.9-5.6,12.3-9.3,19.9-10.4c18.5-2.7,35,6.5,41.7,24c5.9,15.4,5.3,30.6-4.2,44.7
			c-9.8,14.4-26.3,20.5-42.1,15.9c-5.8-1.7-10.6-5-15-9c-0.7,0.7-0.3,1.4-0.3,2.1c0,11.5-0.1,23.1,0,34.6c0,1.8-0.5,2.2-2.2,2.2
			c-5.5-0.1-11-0.1-16.5,0c-1.6,0-2.2-0.2-2.2-2c0.1-36.4,0.1-72.8,0-109.3c0-1.4,0.3-1.9,1.8-1.9c5.8,0.1,11.6,0.1,17.4,0
			c1.3,0,1.7,0.3,1.6,1.6C856.1,89.4,856.1,91.7,856.1,94.5 M900,121.6c-2.6-16.7-22.4-24.7-35.9-14.4c-7.2,5.5-9.4,13.2-8.8,21.8
			c1,14.7,12.5,23.9,26.9,21.6c10.5-1.7,18.3-11.8,18.4-23.9C900.4,125,900.3,123.3,900,121.6"/>
		<path class="st1" d="M472.7,159.7c-1.3,1.1-2.3,1.8-3.3,2.6c-14.1,11.6-35.2,10.1-48.5-2.8c-11.2-10.9-14.6-24.2-13-39.2
			c1.3-12.2,6.7-22.3,16.7-29.6c13.8-10.3,32.8-9.3,46.1,2.1c0.5,0.4,1,0.8,1.9,1.6c0-2.7,0.1-4.9,0-7.1c-0.1-1.4,0.4-1.8,1.8-1.8
			c5.7,0.1,11.5,0.1,17.2,0c1.4,0,1.7,0.5,1.7,1.8v79.2c0,1.5-0.5,1.9-1.9,1.9c-5.6-0.1-11.2-0.1-16.7,0c-1.8,0-2.2-0.6-2.1-2.2
			C472.8,164.1,472.7,162.2,472.7,159.7 M428.6,129.5c0.9,15.8,17,25.9,31.5,19.7c8.7-3.7,13.9-12.5,13.7-23.5
			c-0.3-15.2-12.3-25.2-27.2-22.7c-10.6,1.8-18,11.4-17.9,23.5C428.6,127.6,428.5,128.5,428.6,129.5"/>
		<path class="st1" d="M1021.1,127.9c-0.2,22.3-18.9,44.2-47.9,42.1c-21-1.5-40.6-20.3-39.2-45.8c1.3-23.5,22.6-42.7,46.9-40.4
			C1004.6,86,1021.8,105.1,1021.1,127.9 M999.5,121.7c-1.6-8.6-6.1-14.9-14.6-17.7c-8.6-2.8-16.6-1.4-23.2,5.1
			c-6.2,6.1-7.6,13.7-6.6,22.1c1.7,14.4,15.5,23.3,29.3,18.8c9.4-3,15.3-11.8,15.5-23.7C999.9,125.2,999.9,123.4,999.5,121.7"/>
	</g>
	<g>
		<g>
			<g>
				<defs>
					<path id="SVGID_1_" d="M5.3,122.1c0,65.5,53.2,118.6,118.7,118.6s118.8-53.1,118.8-118.6S189.6,3.5,124,3.5S5.3,56.6,5.3,122.1
						"/>
				</defs>
				<clipPath id="SVGID_2_">
					<use xlink:href="#SVGID_1_"  style="overflow:visible;"/>
				</clipPath>
				<path class="st2" d="M124.1,3.6C58.7,3.6,5.6,56.7,5.6,122.1c0,16.2,3.3,31.6,9.1,45.6L133.3,4C130.3,3.7,127.2,3.6,124.1,3.6"
					/>
			</g>
		</g>
	</g>
	<g>
		<g>
			<g>
				<defs>
					<path id="SVGID_3_" d="M5.3,122.1c0,65.5,53.2,118.6,118.7,118.6s118.8-53.1,118.8-118.6S189.6,3.5,124,3.5S5.3,56.6,5.3,122.1
						"/>
				</defs>
				<clipPath id="SVGID_4_">
					<use xlink:href="#SVGID_3_"  style="overflow:visible;"/>
				</clipPath>
				<path class="st3" d="M134.7,4.1L15.3,169c3.8,8.9,8.7,17.2,14.5,24.9c0.4,2.7,2.1,17.8-4.1,27.2c-6.8,10.4-10.5,19.4,8.3,17.6
					c1.3-0.1,2.7-0.3,4-0.5l154.3-213C175.7,13.5,156,6,134.7,4.1"/>
			</g>
		</g>
	</g>
	<g>
		<g>
			<g>
				<defs>
					<path id="SVGID_5_" d="M5.3,122.1c0,65.5,53.2,118.6,118.7,118.6s118.8-53.1,118.8-118.6S189.6,3.5,124,3.5S5.3,56.6,5.3,122.1
						"/>
				</defs>
				<clipPath id="SVGID_6_">
					<use xlink:href="#SVGID_5_"  style="overflow:visible;"/>
				</clipPath>
				<path class="st4" d="M133.3,4L14.7,167.7c0.2,0.4,0.3,0.9,0.5,1.3L134.7,4.1C134.3,4,133.8,4,133.3,4"/>
			</g>
		</g>
	</g>
	<g>
		<g>
			<g>
				<defs>
					<path id="SVGID_7_" d="M5.3,122.1c0,65.5,53.2,118.6,118.7,118.6s118.8-53.1,118.8-118.6S189.6,3.5,124,3.5S5.3,56.6,5.3,122.1
						"/>
				</defs>
				<clipPath id="SVGID_8_">
					<use xlink:href="#SVGID_7_"  style="overflow:visible;"/>
				</clipPath>
				<path class="st5" d="M192.3,25.2L38,238.2c17.5-2.4,34.5-9.3,34.5-9.3c12,5.8,25,9.6,38.8,11L232,73.3
					C223.3,53.9,209.5,37.3,192.3,25.2"/>
			</g>
		</g>
	</g>
	<path class="st6" d="M5.3,122.1c0,65.5,53.2,118.6,118.7,118.6s118.8-53.1,118.8-118.6S189.6,3.5,124,3.5S5.3,56.6,5.3,122.1"/>
	<g>
		<g>
			<g>
				<defs>
					<path id="SVGID_9_" d="M5.3,122.1c0,65.5,53.2,118.6,118.7,118.6s118.8-53.1,118.8-118.6S189.6,3.5,124,3.5S5.3,56.6,5.3,122.1
						"/>
				</defs>
				<clipPath id="SVGID_10_">
					<use xlink:href="#SVGID_9_"  style="overflow:visible;"/>
				</clipPath>
				<path class="st7" d="M232,73.3L111.4,239.9L232,73.3z"/>
			</g>
		</g>
	</g>
	<polygon class="st8" points="79.2,181.3 53.2,217.2 53.2,217.2 	"/>
	<path class="st8" d="M124,240.6c-4.2,0-8.5-0.3-12.6-0.7l0,0l0,0l0,0l46.6-64.4l0,0l-46.6,64.4c-13.8-1.4-26.8-5.2-38.8-11l0,0
		C88,236.4,105.5,240.6,124,240.6c29,0,55.5-10.3,76.1-27.4c0-0.1-0.1-0.1-0.1-0.2C179.3,230.2,152.9,240.6,124,240.6z"/>
	<polygon class="st8" points="158,175.5 111.4,239.9 111.4,239.9 	"/>
	<path class="st8" d="M59.6,111.5c0,0,9.4-54.8,63.4-58.8c0,0,49.3-5.3,63.7,53.5l1.5,6.1l-7.6,0.2c0,0-7.6-51.5-55.8-51.6
		c0,0-45.1-2.8-57.5,52.7L59.6,111.5z"/>
	<path class="st8" d="M71.2,119.9v-6.2c0-2-0.1-4.2-0.1-6.2c-0.1-2.2-1.2-3.7-3.1-4.3c-1.4-0.5-3.1-0.7-4.6-0.4
		c-4.2,0.7-6.7,3.7-6.7,8c-0.1,6.7,0,13.3,0,20c0,2,0.6,3.7,1.8,5.2c1.8,2.4,5,3.4,8.2,2.5c2.8-0.9,4.6-3.1,4.6-6.2
		C71.2,128.2,71.2,124,71.2,119.9"/>
	<path class="st8" d="M118.2,157.5c2-2.1,4.9-3.3,8-3.2l15.6,0.4c3.9,0,7,1.6,9.1,4.5c0.1,0.1,0.3,0.4,1.2-0.1l1.2-0.7
		c0.9-0.5,1.9-1.1,2.8-1.6c4-3.5,7.4-7.7,10.4-12.7c6.1-10.3,7.8-21.6,5.6-33.3c-4.3-23.1-24.8-40.3-49.3-39.6
		c-24.7,0.7-44.4,19.5-47,43.2c-1.5,13.7,2.1,26,10.9,36.6c7.7,9.3,17.5,14.9,29.1,17c-0.2-0.8-0.4-1.7-0.4-2.7
		C115.2,162.3,116.2,159.5,118.2,157.5z"/>
	<path class="st8" d="M119.1,168.5c0,0.1,0.1,0.2,0.1,0.3c0.4,0,0.9-0.1,1.3-0.1C120.1,168.7,119.6,168.6,119.1,168.5z"/>
	<path class="st8" d="M192.2,114c-0.1-4.6-2.1-7.2-6.2-8c-1.5-0.3-3.8,0-5.8,0.5c-1.5,0.3-2.6,1.7-2.5,3.3
		c0.4,6.5,1.2,13.1,0.2,20.8c-0.6,4.6-1.9,8.7-4.1,12.2c-3.4,5.6-7.7,10.5-12.9,14.4c-2,1.6-4.3,2.8-6.4,4l-1.2,0.7
		c-1.6,0.9-3.1,0.9-4.2,0.1c-0.3-0.2-0.6-0.5-0.8-0.8c-1.6-2.2-3.7-3.3-6.7-3.3l-15.6-0.4h-0.1c-2.2,0-4.2,0.8-5.6,2.3
		s-2.1,3.5-2.1,5.6c0.1,1.3,0.3,2.4,0.8,3.3c0.5,0.1,1,0.1,1.4,0.2c-0.4,0-0.9,0.1-1.3,0.1c0.9,1.7,2.6,2.6,4.7,2.8
		c6.2,0.3,12.6,0.4,19.7,0.3c0.8,0,1.4-0.2,2.1-0.5c1-0.5,1.9-1.4,2.4-2.7c0.8-1.8,2.1-2.6,3.1-3c8.1-3,14.9-7.9,20-14.5
		c1.6-2,2.9-4,4.3-6.1c0.4-0.7,0.9-1.4,1.3-2c0.8-1.3,1.9-1.6,3.3-1.1c1,0.4,2.2,0.6,3.5,0.9c4.1,0.7,6.8-1.1,7.7-5.1
		c0.3-1.2,0.5-2.4,0.5-3.6v-0.1c0.2-2.4,0.2-4.9,0.3-7.6v-2c0-0.9,0-1.8,0-2.7C192.3,119.2,192.3,116.7,192.2,114z"/>
	<path class="st9" d="M199.9,214c-5.4-9.6-12.5-18-21.5-25.2c-6.4-5.1-13.3-9.2-20.5-12.3l-0.2,0.3c-2.6-1.2-5.5-2.2-8.4-3.1
		c-1.4,1.6-3.4,2.5-5.6,2.5c-1.4,0-2.8,0-4.2,0c-5.5,0-10.7-0.1-15.7-0.4c-3.7-0.2-6.5-2.3-7.8-5.5c-2.5,0.3-5.1,0.6-7.6,1
		c-4,0.7-8,1.7-11.9,3s-7.7,2.9-11.3,4.7c-2.1,1-4.1,2.2-6.1,3.4c-1.4,1.1-2.9,2-4.4,3c-3.3,2.3-6.5,4.9-9.5,7.6
		c-3,2.8-5.8,5.8-8.4,8.9c-2.6,3.2-5,6.5-7.1,10c-0.5,0.9-1.4,2.1-1.9,3c1.6,1.3,3.7,2.9,5.4,4.2c6,4.5,11.9,8,18.7,11.3
		c12,5.8,25.8,9.5,39.5,10.9l0.3-0.4c4,0.4,8.2,0.7,12.2,0.7C152.8,241.6,179.3,231.2,199.9,214z"/>
</g>
</svg>